<svg width="337" height="59" viewBox="0 0 337 59" fill="none" xmlns="http://www.w3.org/2000/svg">
<path d="M0.375 38V0.239998H2.295V38H0.375ZM4.215 38V0.239998H9.975V38H4.215ZM11.895 38V0.239998H13.815V38H11.895ZM15.735 38V0.239998H21.495V38H15.735ZM27.255 38V0.239998H29.175V38H27.255ZM15.671 58.672C13.751 58.672 12.1937 58.032 10.999 56.752L11.895 55.28L11.959 55.088L12.151 55.152C12.151 55.1947 12.1723 55.28 12.215 55.408C12.215 55.4933 12.2577 55.6 12.343 55.728C12.3857 55.8133 12.471 55.8987 12.599 55.984C13.495 56.752 14.6043 57.136 15.927 57.136C16.7803 57.136 17.5057 56.9013 18.103 56.432C18.7003 55.92 18.999 55.3227 18.999 54.64C18.999 54.1707 18.8923 53.7653 18.679 53.424C18.5083 53.1253 18.1883 52.8267 17.719 52.528C17.2497 52.2293 16.5243 51.8667 15.543 51.44C14.0923 50.8853 13.047 50.2453 12.407 49.52C11.8097 48.7947 11.511 47.984 11.511 47.088C11.511 45.9787 11.9163 45.0827 12.727 44.4C13.5377 43.7173 14.6257 43.376 15.991 43.376C16.8017 43.376 17.5697 43.5467 18.295 43.888C18.9777 44.2293 19.5963 44.6773 20.151 45.232L19.063 46.704L18.935 46.576C18.935 46.5333 18.9137 46.4693 18.871 46.384C18.871 46.256 18.8283 46.1493 18.743 46.064C18.7003 45.936 18.615 45.8293 18.487 45.744C18.1457 45.4027 17.7403 45.1467 17.271 44.976C16.8443 44.848 16.3323 44.784 15.735 44.784C14.967 44.784 14.3697 44.9973 13.943 45.424C13.4737 45.8507 13.239 46.3627 13.239 46.96C13.239 47.4293 13.3243 47.8347 13.495 48.176C13.7083 48.5173 14.071 48.8373 14.583 49.136C15.095 49.4773 15.863 49.84 16.887 50.224C18.295 50.8213 19.2763 51.4187 19.831 52.016C20.343 52.656 20.599 53.4453 20.599 54.384C20.599 55.1093 20.4283 55.792 20.087 56.432C19.703 57.072 19.1483 57.6053 18.423 58.032C17.655 58.4587 16.7377 58.672 15.671 58.672ZM31.125 38V0.239998H33.045V38H31.125ZM34.965 38V0.239998H40.725V38H34.965ZM42.645 38V0.239998H44.565V38H42.645ZM50.325 38V0.239998H56.085V38H50.325ZM58.005 38V0.239998H59.925V38H58.005ZM42.453 57.008H45.397V44.976H42.645V43.568H50.005V44.976H47.061V57.008H50.133V58.416H42.453V57.008ZM61.875 38V0.239998H67.635V38H61.875ZM69.555 38V0.239998H75.315V38H69.555ZM77.235 38V0.239998H79.155V38H77.235ZM81.075 38V0.239998H82.995V38H81.075ZM88.755 38V0.239998H90.675V38H88.755ZM72.243 43.568H73.587L77.235 50.864L80.947 43.568H82.227V58.416H80.627V47.216L77.427 53.232H76.787L73.779 47.28V58.416H72.243V43.568ZM92.625 38V0.239998H98.385V38H92.625ZM100.305 38V0.239998H102.225V38H100.305ZM104.145 38V0.239998H109.905V38H104.145ZM111.825 38V0.239998H113.745V38H111.825ZM119.505 38V0.239998H121.425V38H119.505ZM107.985 58.672C106.278 58.672 104.977 58.0107 104.081 56.688C103.142 55.3653 102.673 53.488 102.673 51.056C102.673 48.7093 103.142 46.8533 104.081 45.488C105.02 44.1653 106.321 43.504 107.985 43.504C109.649 43.504 110.95 44.1653 111.889 45.488C112.828 46.8533 113.297 48.7093 113.297 51.056C113.297 53.488 112.828 55.3653 111.889 56.688C110.993 58.0107 109.692 58.672 107.985 58.672ZM107.985 57.2C109.137 57.2 110.012 56.688 110.609 55.664C111.249 54.5973 111.569 53.0613 111.569 51.056C111.569 49.1787 111.249 47.6853 110.609 46.576C109.969 45.5093 109.094 44.976 107.985 44.976C106.876 44.976 106.001 45.5093 105.361 46.576C104.721 47.6853 104.401 49.1787 104.401 51.056C104.401 53.0613 104.7 54.5973 105.297 55.664C105.937 56.688 106.833 57.2 107.985 57.2ZM123.375 38V0.239998H125.295V38H123.375ZM127.215 38V0.239998H129.135V38H127.215ZM131.055 38V0.239998H136.815V38H131.055ZM138.735 38V0.239998H140.655V38H138.735ZM146.415 38V0.239998H152.175V38H146.415ZM133.999 43.568H135.599L141.807 54.576V43.568H143.663V43.76C143.535 43.8453 143.471 43.952 143.471 44.08C143.428 44.1653 143.407 44.3573 143.407 44.656V58.416H142.127L135.535 46.768V58.416H133.999V43.568ZM154.125 38V0.239998H156.045V38H154.125ZM161.805 38V0.239998H167.565V38H161.805ZM169.485 38V0.239998H171.405V38H169.485ZM173.325 38V0.239998H179.085V38H173.325ZM181.005 38V0.239998H182.925V38H181.005ZM184.875 38V0.239998H186.795V38H184.875ZM188.715 38V0.239998H194.475V38H188.715ZM196.395 38V0.239998H202.155V38H196.395ZM204.075 38V0.239998H205.995V38H204.075ZM211.755 38V0.239998H213.675V38H211.755ZM195.691 43.568H200.427C202.006 43.568 203.179 43.9733 203.947 44.784C204.758 45.552 205.163 46.5547 205.163 47.792C205.163 48.9867 204.779 49.968 204.011 50.736C203.243 51.504 202.091 51.888 200.555 51.888H197.419V58.416H195.691V43.568ZM200.363 50.416C201.43 50.416 202.198 50.1813 202.667 49.712C203.179 49.2853 203.435 48.6667 203.435 47.856C203.435 47.0453 203.179 46.4053 202.667 45.936C202.155 45.424 201.408 45.168 200.427 45.168H197.419V50.416H200.363ZM215.625 38V0.239998H221.385V38H215.625ZM223.305 38V0.239998H225.225V38H223.305ZM227.145 38V0.239998H232.905V38H227.145ZM234.825 38V0.239998H236.745V38H234.825ZM242.505 38V0.239998H244.425V38H242.505ZM230.985 58.672C229.278 58.672 227.977 58.0107 227.081 56.688C226.142 55.3653 225.673 53.488 225.673 51.056C225.673 48.7093 226.142 46.8533 227.081 45.488C228.02 44.1653 229.321 43.504 230.985 43.504C232.649 43.504 233.95 44.1653 234.889 45.488C235.828 46.8533 236.297 48.7093 236.297 51.056C236.297 53.488 235.828 55.3653 234.889 56.688C233.993 58.0107 232.692 58.672 230.985 58.672ZM230.985 57.2C232.137 57.2 233.012 56.688 233.609 55.664C234.249 54.5973 234.569 53.0613 234.569 51.056C234.569 49.1787 234.249 47.6853 233.609 46.576C232.969 45.5093 232.094 44.976 230.985 44.976C229.876 44.976 229.001 45.5093 228.361 46.576C227.721 47.6853 227.401 49.1787 227.401 51.056C227.401 53.0613 227.7 54.5973 228.297 55.664C228.937 56.688 229.833 57.2 230.985 57.2ZM246.375 38V0.239998H252.135V38H246.375ZM254.055 38V0.239998H255.975V38H254.055ZM257.895 38V0.239998H259.815V38H257.895ZM261.735 38V0.239998H267.495V38H261.735ZM273.255 38V0.239998H275.175V38H273.255ZM257.127 43.568H261.479C263.186 43.568 264.423 43.952 265.191 44.72C266.002 45.4453 266.407 46.4907 266.407 47.856C266.407 48.7093 266.13 49.52 265.575 50.288C265.02 51.056 264.295 51.568 263.399 51.824L266.855 58.416H264.999L261.671 51.888H258.791V58.416H257.127V43.568ZM261.671 50.416C262.695 50.416 263.463 50.1813 263.975 49.712C264.444 49.2853 264.679 48.6667 264.679 47.856C264.679 47.0453 264.444 46.384 263.975 45.872C263.463 45.4027 262.695 45.168 261.671 45.168H258.791V50.416H261.671ZM277.125 38V0.239998H282.885V38H277.125ZM284.805 38V0.239998H286.725V38H284.805ZM288.645 38V0.239998H290.565V38H288.645ZM292.485 38V0.239998H298.245V38H292.485ZM304.005 38V0.239998H305.925V38H304.005ZM287.877 43.568H292.229C293.936 43.568 295.173 43.952 295.941 44.72C296.752 45.4453 297.157 46.4907 297.157 47.856C297.157 48.7093 296.88 49.52 296.325 50.288C295.77 51.056 295.045 51.568 294.149 51.824L297.605 58.416H295.749L292.421 51.888H289.541V58.416H287.877V43.568ZM292.421 50.416C293.445 50.416 294.213 50.1813 294.725 49.712C295.194 49.2853 295.429 48.6667 295.429 47.856C295.429 47.0453 295.194 46.384 294.725 45.872C294.213 45.4027 293.445 45.168 292.421 45.168H289.541V50.416H292.421ZM307.875 38V0.239998H309.795V38H307.875ZM311.715 38V0.239998H317.475V38H311.715ZM319.395 38V0.239998H321.315V38H319.395ZM327.075 38V0.239998H332.835V38H327.075ZM334.755 38V0.239998H336.675V38H334.755ZM319.203 57.008H322.147V44.976H319.395V43.568H326.755V44.976H323.811V57.008H326.883V58.416H319.203V57.008Z" fill="black"/>
</svg>
