<svg width="730" height="117" viewBox="0 0 730 117" fill="none" xmlns="http://www.w3.org/2000/svg">
<path d="M80.9375 5.1875V8.5L71.25 10.125L42.625 38.125L78.4375 84L87.5 85.6875V89H67L34.1875 46.625L22.875 55.6875V84L34.875 85.6875V89H0.0625V85.6875L10.8125 84V10.125L0.0625 8.5V5.1875H33.625V8.5L22.875 10.125V49.625L63 10.125L54.6875 8.5V5.1875H80.9375ZM130.375 28.6875V44.5625H127.688L124.062 37.6875C121.979 37.6875 119.5 37.9792 116.625 38.5625C113.792 39.1042 111.333 39.8333 109.25 40.75V84.625L119.312 86.1875V89H91.4375V86.1875L98.875 84.625V34.625L91.4375 33.0625V30.25H108.562L109.125 37.5625C111.625 35.4792 115 33.4792 119.25 31.5625C123.542 29.6458 126.938 28.6875 129.438 28.6875H130.375ZM147.75 59.4375V60.5625C147.75 66.3125 148.375 70.7917 149.625 74C150.917 77.1667 152.875 79.5833 155.5 81.25C158.167 82.9167 161.646 83.75 165.938 83.75C168.188 83.75 170.854 83.5625 173.938 83.1875C177.021 82.8125 179.562 82.3958 181.562 81.9375V85.4375C179.562 86.7292 176.833 87.8542 173.375 88.8125C169.958 89.7708 166.458 90.25 162.875 90.25C153.75 90.25 147.062 87.7917 142.812 82.875C138.604 77.9583 136.5 70.0625 136.5 59.1875C136.5 48.9375 138.646 41.2917 142.938 36.25C147.229 31.2083 153.354 28.6875 161.312 28.6875C176.354 28.6875 183.875 37.2292 183.875 54.3125V59.4375H147.75ZM161.312 33.6875C156.979 33.6875 153.646 35.4375 151.312 38.9375C149.021 42.4375 147.875 47.6042 147.875 54.4375H173C173 46.9792 172.042 41.6667 170.125 38.5C168.208 35.2917 165.271 33.6875 161.312 33.6875ZM233.562 72.5C233.562 78.3333 231.708 82.75 228 85.75C224.333 88.75 218.896 90.25 211.688 90.25C208.771 90.25 205.542 89.9375 202 89.3125C198.5 88.7292 195.75 88.0625 193.75 87.3125V72.875H196.562L199.625 81.0625C202.75 83.8958 206.812 85.3125 211.812 85.3125C219.896 85.3125 223.938 81.8542 223.938 74.9375C223.938 69.8542 220.75 66.2292 214.375 64.0625L208.812 62.25C204.604 60.875 201.542 59.4792 199.625 58.0625C197.708 56.6458 196.229 54.9167 195.188 52.875C194.146 50.7917 193.625 48.2917 193.625 45.375C193.625 40.2083 195.375 36.1458 198.875 33.1875C202.417 30.1875 207.188 28.6875 213.188 28.6875C217.479 28.6875 222.854 29.3333 229.312 30.625V43.4375H226.375L223.75 36.625C221.542 34.6667 218.062 33.6875 213.312 33.6875C209.938 33.6875 207.354 34.5208 205.562 36.1875C203.812 37.8542 202.938 40.1042 202.938 42.9375C202.938 45.3125 203.729 47.3125 205.312 48.9375C206.938 50.5625 209.375 51.9167 212.625 53C218.75 55.0833 222.75 56.6042 224.625 57.5625C226.5 58.5208 228.083 59.7083 229.375 61.125C230.708 62.5 231.729 64.0833 232.438 65.875C233.188 67.6667 233.562 69.875 233.562 72.5ZM259.125 90.25C255.125 90.25 252.125 89.0625 250.125 86.6875C248.167 84.3125 247.188 80.9792 247.188 76.6875V35.5H239.5V32.6875L247.312 30.25L253.625 16.9375H257.562V30.25H271V35.5H257.562V75.5625C257.562 78.2708 258.167 80.3125 259.375 81.6875C260.625 83.0625 262.25 83.75 264.25 83.75C266.667 83.75 269.604 83.4167 273.062 82.75V86.8125C271.604 87.8125 269.5 88.625 266.75 89.25C264 89.9167 261.458 90.25 259.125 90.25ZM290.125 59.4375V60.5625C290.125 66.3125 290.75 70.7917 292 74C293.292 77.1667 295.25 79.5833 297.875 81.25C300.542 82.9167 304.021 83.75 308.312 83.75C310.562 83.75 313.229 83.5625 316.312 83.1875C319.396 82.8125 321.938 82.3958 323.938 81.9375V85.4375C321.938 86.7292 319.208 87.8542 315.75 88.8125C312.333 89.7708 308.833 90.25 305.25 90.25C296.125 90.25 289.438 87.7917 285.188 82.875C280.979 77.9583 278.875 70.0625 278.875 59.1875C278.875 48.9375 281.021 41.2917 285.312 36.25C289.604 31.2083 295.729 28.6875 303.688 28.6875C318.729 28.6875 326.25 37.2292 326.25 54.3125V59.4375H290.125ZM303.688 33.6875C299.354 33.6875 296.021 35.4375 293.688 38.9375C291.396 42.4375 290.25 47.6042 290.25 54.4375H315.375C315.375 46.9792 314.417 41.6667 312.5 38.5C310.583 35.2917 307.646 33.6875 303.688 33.6875ZM351 35C354.208 33.1667 357.625 31.6667 361.25 30.5C364.875 29.2917 367.896 28.6875 370.312 28.6875C375.396 28.6875 379.229 30.1667 381.812 33.125C384.396 36.0833 385.688 40.375 385.688 46V84.625L392.812 86.1875V89H367.5V86.1875L375.312 84.625V47.125C375.312 43.6667 374.458 40.9583 372.75 39C371.083 37 368.479 36 364.938 36C361.188 36 356.583 36.6042 351.125 37.8125V84.625L359.062 86.1875V89H333.688V86.1875L340.75 84.625V34.625L333.688 33.0625V30.25H350.438L351 35ZM453.25 52.25V84L465.938 85.6875V89H431.25V85.6875L441.188 84V10.125L430.438 8.5V5.1875H466.625C477.125 5.1875 484.875 6.95833 489.875 10.5C494.875 14.0417 497.375 19.7292 497.375 27.5625C497.375 33.1458 495.854 37.9792 492.812 42.0625C489.771 46.1042 485.562 48.9167 480.188 50.5L502.875 84L511.938 85.6875V89H491.875L468.312 52.25H453.25ZM484.938 28.4375C484.938 22.0625 483.375 17.5417 480.25 14.875C477.167 12.1667 471.729 10.8125 463.938 10.8125H453.25V46.625H464.312C471.771 46.625 477.062 45.25 480.188 42.5C483.354 39.7083 484.938 35.0208 484.938 28.4375ZM571.25 59.3125C571.25 79.9375 562.083 90.25 543.75 90.25C534.917 90.25 528.25 87.6042 523.75 82.3125C519.25 77.0208 517 69.3542 517 59.3125C517 49.3958 519.25 41.8125 523.75 36.5625C528.25 31.3125 535.083 28.6875 544.25 28.6875C553.167 28.6875 559.896 31.2708 564.438 36.4375C568.979 41.5625 571.25 49.1875 571.25 59.3125ZM560 59.3125C560 50.3125 558.688 43.7917 556.062 39.75C553.438 35.7083 549.333 33.6875 543.75 33.6875C538.292 33.6875 534.333 35.625 531.875 39.5C529.458 43.375 528.25 49.9792 528.25 59.3125C528.25 68.7708 529.479 75.4792 531.938 79.4375C534.438 83.3542 538.375 85.3125 543.75 85.3125C549.25 85.3125 553.333 83.2708 556 79.1875C558.667 75.1042 560 68.4792 560 59.3125ZM588.562 116.625C585.312 116.625 582.104 116.25 578.938 115.5V102.812H581.875L583.938 108.812C585.229 109.771 587.021 110.25 589.312 110.25C591.479 110.25 593.479 109.625 595.312 108.375C597.146 107.125 598.812 105.271 600.312 102.812C601.854 100.354 603.771 95.9583 606.062 89.625L583.688 34.625L577.688 33.0625V30.25H604.938V33.0625L595.688 34.75L611.562 75.8125L626.938 34.625L617.75 33.0625V30.25H639.625V33.0625L633.5 34.375L610.562 92.6875C607.854 99.5625 605.5 104.5 603.5 107.5C601.5 110.5 599.292 112.771 596.875 114.312C594.458 115.854 591.688 116.625 588.562 116.625ZM669.188 28.9375C675.604 28.9375 680.312 30.25 683.312 32.875C686.354 35.5 687.875 39.5208 687.875 44.9375V84.625L695.188 86.1875V89H679.062L677.875 83.125C673.125 87.875 667.062 90.25 659.688 90.25C649.646 90.25 644.625 84.4167 644.625 72.75C644.625 68.8333 645.375 65.6042 646.875 63.0625C648.417 60.4792 650.854 58.5208 654.188 57.1875C657.521 55.8125 662.354 55.0625 668.688 54.9375L677.5 54.6875V45.5C677.5 41.4583 676.75 38.4792 675.25 36.5625C673.792 34.6458 671.521 33.6875 668.438 33.6875C664.271 33.6875 660.458 34.6667 657 36.625L654.875 43.9375H651.375V31.125C658.125 29.6667 664.062 28.9375 669.188 28.9375ZM677.5 59.0625L669.312 59.3125C663.729 59.5208 659.938 60.6042 657.938 62.5625C655.979 64.5208 655 67.7917 655 72.375C655 79.7083 657.979 83.375 663.938 83.375C666.771 83.375 669.208 83.0625 671.25 82.4375C673.333 81.7708 675.417 80.9375 677.5 79.9375V59.0625ZM719.938 84.625L730 86.1875V89H699.562V86.1875L709.562 84.625V4.5L699.562 3V0.1875H719.938V84.625Z" fill="white"/>
</svg>
