<svg width="442" height="180" viewBox="0 0 442 180" fill="none" xmlns="http://www.w3.org/2000/svg">
<path d="M67.799 81.704C68.9083 81.704 69.7617 82.2587 70.359 83.368C70.9563 84.4773 71.255 85.8853 71.255 87.592C71.255 91.688 70.0177 94.12 67.543 94.888C62.423 96.68 56.791 97.704 50.647 97.96C49.0257 105.128 45.8257 110.888 41.047 115.24C36.2683 119.507 30.8497 121.64 24.791 121.64C19.671 121.64 15.2763 120.403 11.607 117.928C8.023 115.453 5.29233 112.168 3.415 108.072C1.53767 103.976 0.599 99.5387 0.599 94.76C0.599 88.2747 1.83633 82.5147 4.311 77.48C6.78567 72.36 10.199 68.392 14.551 65.576C18.903 62.6747 23.7243 61.224 29.015 61.224C35.5003 61.224 40.7057 63.4853 44.631 68.008C48.6417 72.4453 50.9883 77.9493 51.671 84.52C55.6817 84.264 60.4603 83.4107 66.007 81.96C66.6897 81.7893 67.287 81.704 67.799 81.704ZM25.815 108.072C28.5457 108.072 30.8923 106.963 32.855 104.744C34.903 102.525 36.2683 99.3253 36.951 95.144C34.3057 93.352 32.2577 91.0053 30.807 88.104C29.4417 85.2027 28.759 82.1307 28.759 78.888C28.759 77.5227 28.887 76.1573 29.143 74.792H28.503C25.0897 74.792 22.231 76.456 19.927 79.784C17.7083 83.0267 16.599 87.6347 16.599 93.608C16.599 98.3013 17.495 101.885 19.287 104.36C21.1643 106.835 23.3403 108.072 25.815 108.072ZM110.957 81.96C110.957 88.7013 109.378 95.1013 106.221 101.16C103.149 107.133 99.0103 111.997 93.805 115.752C88.685 119.507 83.181 121.469 77.293 121.64C76.1837 138.109 73.6663 151.848 69.741 162.856C65.8157 173.949 60.0557 179.496 52.461 179.496C47.853 179.496 44.4397 177.832 42.221 174.504C40.0023 171.176 38.893 166.568 38.893 160.68C38.893 152.317 40.813 142.547 44.653 131.368C48.493 120.275 54.4237 108.029 62.445 94.632C62.445 82.1733 62.3597 73.512 62.189 68.648C62.1037 66.1733 63.085 64.2107 65.133 62.76C67.181 61.3093 69.741 60.584 72.813 60.584C74.605 60.584 75.885 60.968 76.653 61.736C77.5063 62.4187 77.9757 63.8267 78.061 65.96C78.061 68.0933 78.1037 69.672 78.189 70.696C80.9197 67.2827 83.6077 64.8507 86.253 63.4C88.8983 61.864 91.7143 61.096 94.701 61.096C99.4797 61.096 103.362 63.016 106.349 66.856C109.421 70.696 110.957 75.7307 110.957 81.96ZM77.933 109.352C81.005 108.669 83.821 107.005 86.381 104.36C89.0263 101.629 91.117 98.3013 92.653 94.376C94.189 90.3653 94.957 86.184 94.957 81.832C94.957 79.272 94.445 77.352 93.421 76.072C92.397 74.7067 91.0317 74.024 89.325 74.024C86.253 74.024 82.541 77.2667 78.189 83.752C78.1037 87.5067 78.061 93.0107 78.061 100.264C78.061 104.189 78.0183 107.219 77.933 109.352ZM53.485 166.952C55.789 166.952 57.709 161.917 59.245 151.848C60.781 141.864 61.7623 129.405 62.189 114.472C58.5197 123.005 55.6183 131.155 53.485 138.92C51.3517 146.685 50.285 153.213 50.285 158.504C50.285 161.235 50.6263 163.325 51.309 164.776C51.9063 166.227 52.6317 166.952 53.485 166.952ZM141.952 124.456C137.515 124.456 134.101 123.432 131.712 121.384C129.408 119.336 128.256 117.032 128.256 114.472C128.256 112.253 129.067 110.333 130.688 108.712C132.309 107.091 134.699 106.28 137.856 106.28C138.965 106.28 140.245 106.408 141.696 106.664C143.232 106.835 144.384 106.963 145.152 107.048C145.067 104.829 144.555 102.739 143.616 100.776C142.763 98.8133 141.653 96.936 140.288 95.144C138.923 93.2667 137.643 91.6453 136.448 90.28C133.803 95.3147 131.157 99.496 128.512 102.824C125.952 106.152 123.136 109.309 120.064 112.296C118.528 113.832 116.907 114.6 115.2 114.6C113.835 114.6 112.725 114.131 111.872 113.192C111.019 112.168 110.592 110.931 110.592 109.48C110.592 107.773 111.189 106.195 112.384 104.744L114.048 102.696C118.741 96.8933 122.283 92.1147 124.672 88.36C126.208 85.8853 127.744 82.9413 129.28 79.528C130.901 76.1147 132.992 71.464 135.552 65.576C137.173 61.8213 140.544 59.944 145.664 59.944C148.053 59.944 149.717 60.1573 150.656 60.584C151.595 61.0107 152.064 61.6933 152.064 62.632C152.064 63.144 151.893 63.9547 151.552 65.064C151.211 66.1733 150.741 67.2827 150.144 68.392C148.608 71.464 147.84 74.0667 147.84 76.2C147.84 77.48 148.267 78.888 149.12 80.424C150.059 81.96 151.467 83.88 153.344 86.184C156.075 89.768 158.123 92.84 159.488 95.4C160.939 97.8747 161.664 100.605 161.664 103.592C161.664 107.176 160.811 110.589 159.104 113.832C157.483 116.989 155.179 119.549 152.192 121.512C149.205 123.475 145.792 124.456 141.952 124.456ZM226.842 121.64C218.479 121.64 211.951 119.293 207.258 114.6C202.65 109.821 200.346 103.549 200.346 95.784C200.346 88.872 201.711 82.8133 204.442 77.608C207.173 72.4027 210.714 68.392 215.066 65.576C219.418 62.76 223.983 61.352 228.762 61.352C233.455 61.352 237.082 62.76 239.642 65.576C242.287 68.3067 243.61 71.848 243.61 76.2C243.61 79.784 242.799 82.8133 241.178 85.288C239.642 87.7627 237.594 89 235.034 89C233.413 89 232.09 88.616 231.066 87.848C230.127 87.08 229.658 86.0133 229.658 84.648C229.658 84.0507 229.743 83.368 229.914 82.6C230.085 81.832 230.213 81.2773 230.298 80.936C230.725 79.656 230.938 78.4613 230.938 77.352C230.938 76.2427 230.639 75.3893 230.042 74.792C229.53 74.1947 228.762 73.896 227.738 73.896C225.775 73.896 223.941 74.792 222.234 76.584C220.527 78.2907 219.162 80.6373 218.138 83.624C217.114 86.6107 216.602 89.896 216.602 93.48C216.602 103.379 220.911 108.328 229.53 108.328C233.029 108.328 236.783 107.176 240.794 104.872C244.89 102.483 248.901 98.9413 252.826 94.248C253.85 93.0533 255.002 92.456 256.282 92.456C257.391 92.456 258.245 92.968 258.842 93.992C259.525 95.016 259.866 96.424 259.866 98.216C259.866 101.459 259.055 104.104 257.434 106.152C253.423 111.101 248.602 114.941 242.97 117.672C237.423 120.317 232.047 121.64 226.842 121.64ZM264.013 121.64C258.722 121.64 254.498 119.72 251.341 115.88C248.184 112.04 246.605 107.005 246.605 100.776C246.605 93.9493 248.184 87.5067 251.341 81.448C254.498 75.304 258.68 70.3973 263.885 66.728C269.176 62.9733 274.765 61.096 280.653 61.096C282.53 61.096 283.768 61.48 284.365 62.248C285.048 62.9307 285.602 64.2107 286.029 66.088C287.821 65.7467 289.698 65.576 291.661 65.576C295.842 65.576 297.933 67.0693 297.933 70.056C297.933 71.848 297.293 76.1147 296.013 82.856C294.05 92.6693 293.069 99.496 293.069 103.336C293.069 104.616 293.368 105.64 293.965 106.408C294.648 107.176 295.501 107.56 296.525 107.56C298.146 107.56 300.109 106.536 302.413 104.488C304.717 102.355 307.832 98.9413 311.757 94.248C312.781 93.0533 313.933 92.456 315.213 92.456C316.322 92.456 317.176 92.968 317.773 93.992C318.456 95.016 318.797 96.424 318.797 98.216C318.797 101.629 317.986 104.275 316.365 106.152C312.866 110.504 309.154 114.173 305.229 117.16C301.304 120.147 297.506 121.64 293.837 121.64C291.021 121.64 288.418 120.701 286.029 118.824C283.725 116.861 281.976 114.216 280.781 110.888C276.344 118.056 270.754 121.64 264.013 121.64ZM268.621 108.712C270.498 108.712 272.29 107.603 273.997 105.384C275.704 103.165 276.941 100.221 277.709 96.552L282.445 73C278.861 73.0853 275.533 74.4507 272.461 77.096C269.474 79.656 267.085 83.0693 265.293 87.336C263.501 91.6027 262.605 96.1253 262.605 100.904C262.605 103.549 263.117 105.512 264.141 106.792C265.25 108.072 266.744 108.712 268.621 108.712ZM398.28 85.16C400.669 85.16 401.864 86.952 401.864 90.536C401.864 97.3627 396.403 100.776 385.48 100.776C385.053 100.776 382.664 100.648 378.312 100.392C379.251 104.915 379.976 110.077 380.488 115.88C381.085 121.597 381.384 127.315 381.384 133.032C381.384 142.248 379.805 149.288 376.648 154.152C373.576 159.016 369.608 161.448 364.744 161.448C358.6 161.448 354.205 157.096 351.56 148.392C349 139.688 347.72 126.547 347.72 108.968C347.72 104.445 347.848 99.88 348.104 95.272C347.336 95.3573 346.099 95.4 344.392 95.4C342.088 95.4 340.211 95.4427 338.76 95.528C339.613 101.843 340.253 107.901 340.68 113.704C341.192 119.507 341.448 125.949 341.448 133.032C341.448 142.248 339.869 149.288 336.712 154.152C333.64 159.016 329.672 161.448 324.808 161.448C318.664 161.448 314.269 157.096 311.624 148.392C309.064 139.688 307.784 126.547 307.784 108.968C307.784 92.4987 309.405 75.8587 312.648 59.048C315.976 42.152 320.584 28.2 326.472 17.192C332.36 6.18399 339.016 0.679993 346.44 0.679993C350.28 0.679993 353.267 2.30133 355.4 5.54399C357.619 8.70132 358.728 13.2667 358.728 19.24C358.728 28.5413 356.211 38.9093 351.176 50.344C346.227 61.6933 337.437 73.64 324.808 86.184C324.04 93.6933 323.656 100.989 323.656 108.072C323.656 116.861 323.955 125.864 324.552 135.08C325.149 144.381 326.131 149.032 327.496 149.032C328.776 149.032 329.8 147.965 330.568 145.832C331.336 143.699 331.72 140.328 331.72 135.72C331.72 127.357 331.379 119.976 330.696 113.576C330.099 107.091 329.373 101.885 328.52 97.96C328.349 97.3627 328.264 96.4667 328.264 95.272C328.264 91.6027 329.715 88.5733 332.616 86.184C335.603 83.7947 339.528 82.5573 344.392 82.472H347.464H349.256C350.877 68.3067 353.523 54.9947 357.192 42.536C360.947 29.992 365.469 19.88 370.76 12.2C376.136 4.51999 381.896 0.679993 388.04 0.679993C392.051 0.679993 395.165 2.47199 397.384 6.05599C399.688 9.63999 400.84 14.4613 400.84 20.52C400.84 28.0293 399.432 36.4347 396.616 45.736C393.8 55.0373 389.619 63.784 384.072 71.976C378.611 80.0827 372.083 86.184 364.488 90.28C363.891 95.9973 363.592 101.928 363.592 108.072C363.592 116.861 363.891 125.864 364.488 135.08C365.085 144.381 366.067 149.032 367.432 149.032C368.712 149.032 369.736 147.965 370.504 145.832C371.272 143.699 371.656 140.328 371.656 135.72C371.656 129.064 371.315 122.707 370.632 116.648C369.949 110.589 369.224 105.64 368.456 101.8C368.285 101.117 368.2 100.179 368.2 98.984C368.2 95.4853 369.395 92.5413 371.784 90.152C374.173 87.6773 376.904 86.44 379.976 86.44C382.877 86.44 385.523 86.3547 387.912 86.184C390.387 85.928 391.965 85.7573 392.648 85.672C395.549 85.3307 397.427 85.16 398.28 85.16ZM343.752 13.352C342.216 13.352 340.381 15.9547 338.248 21.16C336.2 26.3653 334.152 33.2773 332.104 41.896C330.056 50.5147 328.307 59.688 326.856 69.416C333.341 61.736 338.205 53.416 341.448 44.456C344.776 35.4107 346.44 27.2187 346.44 19.88C346.44 17.7467 346.184 16.1253 345.672 15.016C345.16 13.9067 344.52 13.352 343.752 13.352ZM385.352 13.352C383.645 13.352 381.555 16.3387 379.08 22.312C376.691 28.2853 374.301 36.0933 371.912 45.736C369.608 55.3787 367.688 65.3627 366.152 75.688C371.016 71.848 375.112 66.728 378.44 60.328C381.853 53.928 384.371 47.2293 385.992 40.232C387.699 33.2347 388.552 26.8773 388.552 21.16C388.552 15.9547 387.485 13.352 385.352 13.352ZM437.968 96.296C439.077 96.296 439.931 96.808 440.528 97.832C441.211 98.856 441.552 100.264 441.552 102.056C441.552 105.128 440.827 107.773 439.376 109.992C436.987 113.661 433.829 116.52 429.904 118.568C426.064 120.616 421.456 121.64 416.08 121.64C407.888 121.64 401.531 119.208 397.008 114.344C392.485 109.395 390.224 102.739 390.224 94.376C390.224 88.488 391.461 83.0267 393.936 77.992C396.411 72.872 399.824 68.8187 404.176 65.832C408.613 62.8453 413.605 61.352 419.152 61.352C424.101 61.352 428.069 62.8453 431.056 65.832C434.043 68.7333 435.536 72.7013 435.536 77.736C435.536 83.624 433.403 88.7013 429.136 92.968C424.955 97.1493 417.787 100.477 407.632 102.952C409.68 106.877 413.136 108.84 418 108.84C421.499 108.84 424.357 108.029 426.576 106.408C428.88 104.787 431.525 102.056 434.512 98.216C435.536 96.936 436.688 96.296 437.968 96.296ZM416.976 73.896C413.819 73.896 411.131 75.7307 408.912 79.4C406.779 83.0693 405.712 87.5067 405.712 92.712V92.968C410.747 91.7733 414.715 89.9813 417.616 87.592C420.517 85.2027 421.968 82.4293 421.968 79.272C421.968 77.6507 421.499 76.3707 420.56 75.432C419.707 74.408 418.512 73.896 416.976 73.896Z" fill="white"/>
</svg>
